<svg xmlns="http://www.w3.org/2000/svg" width="900" height="600" viewBox="0 0 900 600">
  <defs>
    <style>
      .cls-1 {
        fill: #357cd1;
      }

      .cls-1, .cls-2 {
        fill-rule: evenodd;
      }

      .cls-2 {
        fill: #3f93fb;
      }
    </style>
  </defs>
  <path id="모양_1" data-name="모양 1" class="cls-1" d="M-39.719-17.124s26.8,88.047,131.8,51.422,102.4,10.338,148.371,2.718S286.742-5.318,384,17.641,501.487,51.648,541.465,37.528,631.99-20.936,701.66,22.46,824.751,56.34,845.558,41.1s59.049-5.253,69.988,2.282,49.795-86.908-2.367-99.06S-44.063-56.034-39.719-17.124Z"/>
  <path id="모양_1-2" data-name="모양 1" class="cls-2" d="M-39.536-27.122s26.8,88.047,131.8,51.422,102.4,10.338,148.371,2.718,46.29-42.334,143.55-19.374S501.671,41.649,541.649,27.53s90.524-58.464,160.194-15.069S824.934,46.342,845.741,31.1s59.049-5.252,69.988,2.282,49.795-86.908-2.366-99.06S-43.88-66.033-39.536-27.122Z"/>
</svg>
