<?xml version="1.0"?>
<svg xmlns="http://www.w3.org/2000/svg" xmlns:xlink="http://www.w3.org/1999/xlink" width="512px" height="512px" viewBox="0 0 58 58" version="1.1" class=""><g><title>004 - Printer</title><desc>Created with Sketch.</desc><defs/><g id="Page-1" stroke="none" stroke-width="1" fill="none" fill-rule="evenodd"><g id="004---Printer" fill-rule="nonzero"><path d="M18,12 L12.212,12 C10.8031147,12.0000088 9.45961624,12.5944161 8.512,13.637 L0,23 L28.333,26 L58,23 L49.488,13.637 C48.5403838,12.5944161 47.1968853,12.0000088 45.788,12 L40,12" id="Shape" fill="#90BAE1" data-original="#90BAE1" class=""/><path d="M19,0 L39,0 C39.5522847,0 40,0.44771525 40,1 L40,18 L18,18 L18,1 C18,0.44771525 18.4477153,0 19,0 Z" id="Shape" fill="#BDC3C7" data-original="#BDC3C7" class="active-path" data-old_color="#BDC3C7" style="fill:#C7CDD0"/><path d="M42,19 L16,19 C15.4477153,19 15,18.5522847 15,18 C15,17.4477153 15.4477153,17 16,17 L42,17 C42.5522847,17 43,17.4477153 43,18 C43,18.5522847 42.5522847,19 42,19 Z" id="Shape" fill="#2C3E50" data-original="#2C3E50" class=""/><path d="M37,48 L21,48 C20.4477153,48 20,47.5522847 20,47 C20,46.4477153 20.4477153,46 21,46 L37,46 C37.5522847,46 38,46.4477153 38,47 C38,47.5522847 37.5522847,48 37,48 Z" id="Shape" fill="#000000" data-original="#000000"/><path d="M44,47 L53,47 C54.3260824,47 55.597852,46.4732158 56.5355339,45.5355339 C57.4732158,44.597852 58,43.3260824 58,42 L58,23 L0,23 L0,42 C-2.66453526e-15,43.3260824 0.526784202,44.597852 1.46446609,45.5355339 C2.40214799,46.4732158 3.67391755,47 5,47 L14,47" id="Shape" fill="#4482C3" data-original="#4482C3" class="" style="fill:#468FE8" data-old_color="#4482C3"/><path d="M14,47 L13,47 L13,38 C13,33.581722 16.581722,30 21,30 L37,30 C41.418278,30 45,33.581722 45,38 L45,47 L44,47" id="Shape" fill="#2C3E50" data-original="#2C3E50" class=""/><path d="M37,48 L21,48 C20.4477153,48 20,47.5522847 20,47 C20,46.4477153 20.4477153,46 21,46 L37,46 C37.5522847,46 38,46.4477153 38,47 C38,47.5522847 37.5522847,48 37,48 Z" id="Shape" fill="#000000" data-original="#000000"/><circle id="Oval" fill="#285680" cx="52" cy="30" r="2" data-original="#285680" class=""/><circle id="Oval" fill="#CC4B4C" cx="52" cy="36" r="1" data-original="#CC4B4C" class=""/><circle id="Oval" fill="#4FBA6F" cx="52" cy="39" r="1" data-original="#4FBA6F" class="" style="fill:#04458F" data-old_color="#4FBA6F"/><circle id="Oval" fill="#4FBA6F" cx="52" cy="42" r="1" data-original="#4FBA6F" class="" style="fill:#04458F" data-old_color="#4FBA6F"/><path d="M19,39 L39,39 C40.1045695,39 41,39.8954305 41,41 L41,45 L17,45 L17,41 C17,39.8954305 17.8954305,39 19,39 Z" id="Shape" fill="#285680" data-original="#285680" class=""/><path d="M4,29 C3.44771525,29 3,28.5522847 3,28 L3,27 C3,26.4477153 3.44771525,26 4,26 C4.55228475,26 5,26.4477153 5,27 L5,28 C5,28.5522847 4.55228475,29 4,29 Z" id="Shape" fill="#90BAE1" data-original="#90BAE1" class=""/><path d="M4,39 C3.44771525,39 3,38.5522847 3,38 L3,32 C3,31.4477153 3.44771525,31 4,31 C4.55228475,31 5,31.4477153 5,32 L5,38 C5,38.5522847 4.55228475,39 4,39 Z" id="Shape" fill="#90BAE1" data-original="#90BAE1" class=""/><path d="M40.64,55 L48,55 C48.3787721,55 48.7250352,54.7859976 48.8944272,54.4472136 C49.0638192,54.1084296 49.0272632,53.7030176 48.8,53.4 L44,47 L41,43 L17,43 L14,47 L9.2,53.4 C8.97273676,53.7030176 8.93618079,54.1084296 9.10557281,54.4472136 C9.27496482,54.7859976 9.62122794,55 10,55 L17.36,55" id="Shape" fill="#4482C3" data-original="#4482C3" class="" style="fill:#468FE8" data-old_color="#4482C3"/><path d="M40.447,58 L17.553,58 C17.2130122,57.9999059 16.8963631,57.8270768 16.712369,57.5411784 C16.5283749,57.2552799 16.502245,56.8954831 16.643,56.586 L20.734,47.586 C20.8962734,47.2292035 21.2520352,47.0001085 21.644,47 L36.356,47 C36.7479648,47.0001085 37.1037266,47.2292035 37.266,47.586 L41.357,56.586 C41.497755,56.8954831 41.4716251,57.2552799 41.287631,57.5411784 C41.1036369,57.8270768 40.7869878,57.9999059 40.447,58 Z" id="Shape" fill="#BDC3C7" data-original="#BDC3C7" class="active-path" data-old_color="#BDC3C7" style="fill:#C7CDD0"/><path d="M33,52 L25,52 C24.4477153,52 24,51.5522847 24,51 C24,50.4477153 24.4477153,50 25,50 L33,50 C33.5522847,50 34,50.4477153 34,51 C34,51.5522847 33.5522847,52 33,52 Z" id="Shape" fill="#2C3E50" data-original="#2C3E50" class=""/><path d="M35,55 L23,55 C22.4477153,55 22,54.5522847 22,54 C22,53.4477153 22.4477153,53 23,53 L35,53 C35.5522847,53 36,53.4477153 36,54 C36,54.5522847 35.5522847,55 35,55 Z" id="Shape" fill="#2C3E50" data-original="#2C3E50" class=""/></g></g></g> </svg>
