<?xml version="1.0"?>
<svg xmlns="http://www.w3.org/2000/svg" height="512px" viewBox="1 1 511.99999 511.99999" width="512px" class="hovered-paths"><g><path d="m80 16h352c35.347656 0 64 28.652344 64 64v352c0 35.347656-28.652344 64-64 64h-352c-35.347656 0-64-28.652344-64-64v-352c0-35.347656 28.652344-64 64-64zm0 0" fill="#bddbff" data-original="#BDDBFF" class="" style="fill:#FFFFFF" data-old_color="#bddbff"/><g fill="#3d9ae2"><path d="m432 0h-352c-44.160156.0507812-79.9492188 35.839844-80 80v352c.0507812 44.160156 35.839844 79.949219 80 80h352c44.160156-.050781 79.949219-35.839844 80-80v-352c-.050781-44.160156-35.839844-79.9492188-80-80zm48 432c0 26.507812-21.488281 48-48 48h-352c-26.507812 0-48-21.488281-48-48v-352c0-26.507812 21.488281-48 48-48h352c26.507812 0 48 21.488281 48 48zm0 0" data-original="#3D9AE2" class="hovered-path active-path" style="fill:#FF83A8" data-old_color="#3D9AE2"/><path d="m256 96c-52.996094.054688-95.945312 43.003906-96 96h32c0-35.347656 28.652344-64 64-64 35.347656-.035156 64.027344 28.589844 64.0625 63.9375.027344 28.300781-18.535156 53.257812-45.648438 61.375-20.402343 5.9375-34.425781 24.640625-34.414062 45.886719v52.800781h32v-52.800781c.0625-7.09375 4.789062-13.300781 11.617188-15.246094 50.78125-15.234375 79.601562-68.75 64.367187-119.535156-12.183594-40.621094-49.578125-68.433594-91.984375-68.417969zm0 0" data-original="#3D9AE2" class="hovered-path active-path" style="fill:#FF83A8" data-old_color="#3D9AE2"/><path d="m240 384h32v32h-32zm0 0" data-original="#3D9AE2" class="hovered-path active-path" style="fill:#FF83A8" data-old_color="#3D9AE2"/></g></g> </svg>
