<svg height="512pt" viewBox="-23 0 511 512" width="512pt" xmlns="http://www.w3.org/2000/svg"><path d="m242.84375 112.871094-10.003906-53.421875c0-5.695313-4.632813-10.308594-10.351563-10.308594h-53.207031c-1.804688 0-3.265625-1.414063-3.382812-3.207031-1.65625-25.644532-23.0625-45.933594-49.226563-45.933594s-47.574219 20.289062-49.230469 45.933594c-.117187 1.792968-1.578125 3.207031-3.378906 3.207031h-53.210938c-5.71875 0-10.351562 4.613281-10.351562 10.308594v210.808593c0 5.695313 4.632812 10.3125 10.351562 10.3125l122.335938 10 99.667969-10s-.015625-4.617187-.015625-10.308593l10.003906-53.421875c0-1.5625 0-102.40625 0-103.96875zm0 0" fill="#ff84a7"/><path d="m296.851562 49.140625h-53.628906c-5.71875 0-10.351562 4.613281-10.351562 10.308594v53c0 1.796875-1.417969 3.253906-3.21875 3.367187-25.746094 1.652344-46.113282 22.976563-46.113282 49.039063 0 26.058593 20.367188 47.382812 46.113282 49.035156 1.800781.113281 3.21875 1.570313 3.21875 3.367187v53 10.3125l116.984375 11 105.003906-11c5.71875 0 10.351563-4.617187 10.351563-10.3125v-210.808593c0-5.695313-4.632813-10.308594-10.351563-10.308594h-53.628906c-1.570313 0-2.847657 1.226563-2.933594 2.785156-1.449219 25.839844-22.949219 46.351563-49.253906 46.351563-26.308594 0-47.804688-20.511719-49.253907-46.351563-.089843-1.5625-1.367187-2.785156-2.9375-2.785156zm0 0" fill="#83d9ff"/><path d="m212.871094 344.300781 20-63.730469h63.5625c1.800781 0 3.261718-1.414062 3.378906-3.207031 1.65625-25.644531 23.066406-45.933593 49.230469-45.933593 26.164062 0 47.570312 20.289062 49.226562 45.933593.117188 1.792969 1.578125 3.207031 3.382813 3.207031h53.207031c5.71875 0 10.351563 4.613282 10.351563 10.308594v210.808594c0 5.695312-4.632813 10.3125-10.351563 10.3125h-211.636719c-5.71875 0-10.351562-4.617188-10.351562-10.3125l-20-53.417969c0-1.5625 0-102.40625 0-103.96875zm0 0" fill="#5186ff"/><path d="m168.859375 512h53.628906c5.71875 0 10.351563-4.617188 10.351563-10.308594v-53.003906c0-1.796875 1.417968-3.25 3.21875-3.367188 25.746094-1.648437 46.113281-22.972656 46.113281-49.035156s-20.367187-47.386718-46.113281-49.035156c-1.800782-.117188-3.21875-1.570312-3.21875-3.367188v-53.003906c0-5.691406.015625-10.308594.015625-10.308594h-222.003907c-5.71875 0-10.351562 4.617188-10.351562 10.308594v210.8125c0 5.691406 4.632812 10.308594 10.351562 10.308594h53.628907c1.570312 0 2.847656-1.226562 2.933593-2.785156 1.453126-25.84375 22.949219-46.351563 49.257813-46.351563 26.304687 0 47.800781 20.507813 49.253906 46.351563.085938 1.558594 1.363281 2.785156 2.933594 2.785156zm0 0" fill="#ffb8d5"/><path d="m344.828125 452.847656c-.152344 0-.300781-.003906-.453125-.011718l-.335938-.023438c-4.25-.375-7.390624-4.125-7.019531-8.375.375-4.242188 4.121094-7.359375 8.347657-7.023438 4.210937.300782 7.410156 3.929688 7.167968 8.15625-.238281 4.105469-3.644531 7.277344-7.707031 7.277344zm-.007813-8.878906-.101562 1.144531zm-30.113281 1.878906c-.890625 0-1.792969-.15625-2.675781-.480468-4.035156-1.386719-6.148438-5.773438-4.761719-9.808594s5.820313-6.167969 9.851563-4.78125c.054687.019531.207031.070312.261718.089844 4.003907 1.480468 6.050782 5.921874 4.574219 9.925781-1.152343 3.121093-4.109375 5.054687-7.25 5.054687zm58.464844-2.1875c-2.003906 0-4.007813-.773437-5.519531-2.316406-2.988282-3.046875-2.9375-7.941406.109375-10.925781.015625-.015625.070312-.070313.074219-.074219 3.050781-2.984375 7.941406-2.9375 10.929687.113281 2.984375 3.046875 2.933594 7.941407-.113281 10.925781l-.074219.070313c-1.503906 1.476563-3.457031 2.207031-5.40625 2.207031zm-86.855469-10.171875c-1.210937 0-2.4375-.285156-3.582031-.886719l-.136719-.070312c-3.765625-2.007812-5.191406-6.6875-3.183594-10.453125 2.007813-3.769531 6.6875-5.191406 10.453126-3.183594l-3.636719 6.820313 3.683593-6.796875c3.777344 1.984375 5.234376 6.652343 3.25 10.433593-1.378906 2.632813-4.066406 4.136719-6.847656 4.136719zm-161.5-16.605469c-3.964844 0-7.382812-3.023437-7.738281-7.042968-.375-4.25 2.714844-7.996094 6.964844-8.371094l.101562-.007812c4.246094-.386719 8.003907 2.765624 8.378907 7.015624s-2.769532 8-7.019532 8.375c-.230468.023438-.460937.03125-.6875.03125zm135.636719-.359374c-1.71875 0-3.441406-.566407-4.878906-1.734376-3.34375-2.652343-3.902344-7.507812-1.253907-10.855468 2.648438-3.339844 7.507813-3.90625 10.855469-1.253906l.160157.128906c3.308593 2.695312 3.804687 7.5625 1.109374 10.871094-1.527343 1.875-3.75 2.84375-5.992187 2.84375zm126.769531-.0625c-.605468 0-1.214844-.070313-1.828125-.21875-4.144531-1.007813-6.691406-5.183594-5.6875-9.332032l1.261719.308594 6.269531 1.414062 7.523438 1.769532c-.003907.015625-.03125.132812-.035157.148437-.859374 3.535157-4.023437 5.910157-7.503906 5.910157zm-292.179687-6.519532c-1.207031 0-2.4375-.289062-3.582031-.886718l-.136719-.074219c-3.765625-2.007813-5.191407-6.6875-3.183594-10.453125s6.6875-5.1875 10.453125-3.179688l-3.632812 6.816406 3.679687-6.792968c3.777344 1.980468 5.234375 6.652344 3.25 10.429687-1.378906 2.632813-4.066406 4.140625-6.847656 4.140625zm57.976562-4.816406c-2.5 0-4.949219-1.207031-6.4375-3.441406-2.367187-3.550782-1.40625-8.347656 2.144531-10.714844l4.285157 6.429688-4.25-6.453126c3.535156-2.382812 8.339843-1.460937 10.726562 2.070313s1.472657 8.324219-2.054687 10.71875c-.015625.011719-.121094.082031-.136719.09375-1.316406.875-2.804687 1.296875-4.277344 1.296875zm84.09375-8.984375c-1.734375 0-3.476562-.582031-4.917969-1.777344l-.136718-.113281c-3.257813-2.757812-3.660156-7.632812-.90625-10.890625 2.757812-3.257813 7.632812-3.664063 10.890625-.90625l-4.992188 5.898437 5.019531-5.875c3.265626 2.734376 3.710938 7.609376.980469 10.878907-1.527343 1.835937-3.726562 2.785156-5.9375 2.785156zm-165.925781-5.710937c-2.242188 0-4.46875-.972657-5.996094-2.847657-2.6875-3.300781-2.234375-8.191406 1.054688-10.890625 3.292968-2.699218 8.113281-2.269531 10.824218 1.007813.011719.015625.089844.109375.101563.125 2.695313 3.308593 2.199219 8.171875-1.109375 10.867187-1.433594 1.167969-3.160156 1.738282-4.875 1.738282zm108.097656-1.703126c-2.945312 0-5.757812-1.691406-7.046875-4.546874-1.753906-3.882813-.03125-8.453126 3.847657-10.214844 3.828124-1.800782 8.398437-.1875 10.242187 3.628906 1.859375 3.839844.253906 8.460938-3.589844 10.316406l-.277343.132813c-1.03125.464843-2.113282.683593-3.175782.683593zm-.644531-9.140624.640625 1.414062zm209.371094 6.148437c-3.578125 0-6.796875-2.511719-7.566407-6.148437-.011718-.050782-.042968-.203126-.050781-.253907-.800781-4.191406 1.945313-8.238281 6.136719-9.039062s8.238281 1.945312 9.039062 6.136719c.886719 4.175781-1.785156 8.25-5.960937 9.136718-.535156.113282-1.070313.167969-1.597656.167969zm-.875 30.726563c-3.578125 0-6.792969-2.511719-7.566407-6.148438-.011718-.050781-.039062-.203125-.050781-.253906-.800781-4.191406 1.949219-8.238282 6.136719-9.039063 4.195312-.800781 8.238281 1.945313 9.042969 6.136719.882812 4.171875-1.789063 8.25-5.960938 9.136719-.539062.113281-1.074219.167969-1.601562.167969zm-177.613281-33.050782c-.269532 0-.546876-.015625-.824219-.042968-4.222657-.402344-7.347657-4.144532-6.96875-8.378907.375-4.246093 4.117187-7.402343 8.363281-7.011719l.324219.035157c4.238281.496093 7.269531 4.335937 6.769531 8.574219-.460938 3.933593-3.800781 6.824218-7.664062 6.824218zm-152.101563-20.421875c-3.660156 0-6.914063-2.613281-7.59375-6.34375-.800781-4.191406 1.945313-8.257812 6.136719-9.058593 4.1875-.808594 8.234375 1.933593 9.039062 6.125l.03125.167968c.761719 4.199219-2.023437 8.21875-6.21875 8.984375-.46875.085938-.933594.125-1.394531.125zm317.273437-4.96875c-2.328124 0-4.628906-1.050781-6.148437-3.046875-.042969-.0625-.148437-.203125-.195313-.265625-2.480468-3.472656-1.675781-8.296875 1.796876-10.777343 3.449218-2.464844 8.230468-1.6875 10.722656 1.71875 2.546875 3.402343 1.878906 8.230468-1.511719 10.796874-1.394531 1.0625-3.039063 1.574219-4.664063 1.574219zm-310.996093-24.453125c-1.53125 0-3.078125-.453125-4.421875-1.394531-3.480469-2.449219-4.34375-7.230469-1.914063-10.722656l.113281-.160157c2.480469-3.46875 7.308594-4.273437 10.777344-1.792968 3.472656 2.480468 4.277344 7.304687 1.796875 10.777344l-6.285156-4.492188 6.269531 4.515625c-1.507812 2.128906-3.90625 3.269531-6.335937 3.269531zm292.3125-.234375c-2.621094 0-5.179688-1.335937-6.628907-3.738281l-.113281-.1875c-2.152343-3.6875-.90625-8.417969 2.78125-10.566406 3.6875-2.152344 8.417969-.90625 10.566407 2.777344 2.203124 3.65625 1.027343 8.398437-2.625 10.605468-1.25.75-2.625 1.109375-3.980469 1.109375zm-269.746094-20.859375c-2.300781 0-4.582031-1.023437-6.105469-2.980468-2.617187-3.371094-2.011718-8.222657 1.355469-10.84375l.082031-.0625c3.367188-2.621094 8.222656-2.015626 10.84375 1.355468 2.617188 3.367188 2.011719 8.222656-1.355468 10.839844l-.082032.066406c-1.410156 1.09375-3.082031 1.625-4.738281 1.625zm262.851563-8.738281c-.261719 0-.53125-.011719-.800782-.039063-4.242187-.4375-7.328125-4.234374-6.890625-8.476562l.007813-.105469c.4375-4.242187 4.226562-7.328125 8.476562-6.894531 4.246094.4375 7.332032 4.230469 6.894532 8.476562l-.007813.105469c-.410156 3.972657-3.765625 6.933594-7.679687 6.933594zm-240.351563-12.4375c-1.5 0-3.015625-.433594-4.347656-1.34375-3.507813-2.40625-4.429688-7.175781-2.039063-10.695313.015625-.027343.09375-.136718.109375-.160156 2.441407-3.503906 7.257813-4.367187 10.757813-1.925781 3.5 2.4375 4.363281 7.253906 1.925781 10.753906l-6.339844-4.414062 6.324219 4.4375c-1.503906 2.175781-3.929688 3.347656-6.390625 3.347656zm253.941406-14.773437c-1.734375 0-3.476562-.578126-4.917969-1.769532-3.289062-2.722656-3.75-7.59375-1.03125-10.878906l5.953126 4.921875-5.925782-4.957031c2.699219-3.308594 7.566406-3.804688 10.871094-1.109375 3.308594 2.695312 3.804688 7.558593 1.109375 10.867187-.011719.015625-.089844.109375-.101563.125-1.527343 1.847656-3.734374 2.800782-5.957031 2.800782zm-248.914062-14.660157c-3.3125 0-6.367188-2.140625-7.378907-5.472656-.007812-.027344-.042968-.148437-.050781-.171875-1.199219-4.097656 1.152344-8.386719 5.246094-9.582031 4.09375-1.199219 8.386719 1.148437 9.585937 5.246093l-7.417968 2.167969 7.425781-2.136719c1.214844 4.082032-1.101563 8.394532-5.179687 9.621094-.742188.222656-1.492188.328125-2.230469.328125zm264.777343-11.707031c-.820312 0-1.65625-.128906-2.476562-.410156-4.042969-1.367188-6.210938-5.753906-4.84375-9.792969l7.316406 2.476563-7.304687-2.511719c1.347656-4.042969 5.714843-6.242188 9.761719-4.90625 4.042968 1.335937 6.246093 5.679687 4.917968 9.730469-.007812.023437-.046875.140624-.054687.164062-1.089844 3.222656-4.09375 5.25-7.316407 5.25zm-281.882812-13.75c-2.054688 0-4.109375-.816406-5.628906-2.4375-2.988282-3.046875-2.917969-7.917969.132812-10.90625 3.046875-2.984375 7.957032-2.914062 10.945313.132812l.179687.191407c2.925782 3.109375 2.773438 8-.335937 10.921875-1.492188 1.402344-3.394531 2.097656-5.292969 2.097656zm285.980469-16.863281c-4.160157 0-7.589844-3.261719-7.714844-7.449219v-.101562c-.128906-4.265626 3.230469-7.824219 7.492187-7.949219 4.300782-.132813 7.828126 3.230469 7.953126 7.492187.125 4.269532-3.230469 7.878906-7.496094 8.003906-.078125.003907-.15625.003907-.234375.003907zm-306.847657-6.050781c-2.472656 0-4.898437-1.183594-6.390624-3.382813-.011719-.019531-.082032-.121094-.09375-.136719-2.367188-3.550781-1.40625-8.351562 2.144531-10.714844 3.550781-2.367187 8.347656-1.40625 10.714843 2.140626l-6.429687 4.289062 6.453125-4.253906c2.382812 3.535156 1.457031 8.339844-2.074219 10.730468-1.324219.898438-2.832031 1.328126-4.324219 1.328126zm301.253907-24.304688c-3.160157 0-6.113281-1.945312-7.242188-5.089844l-.046875-.132812c-1.425781-4.023438.683594-8.4375 4.703125-9.859375 4.023438-1.429688 8.441407.683593 9.863281 4.703125 1.441407 4.015625-.632812 8.472656-4.648437 9.917968-.867187.3125-1.757813.460938-2.628906.460938zm-305.269531-5.039062c-.980469 0-1.980469-.1875-2.945313-.585938-3.941406-1.628906-5.820313-6.144531-4.191406-10.089844 1.574219-3.964844 6.0625-5.902344 10.03125-4.332031 3.964843 1.574219 5.902343 6.070313 4.328125 10.035156-.011719.03125-.0625.160157-.078125.191407-1.226563 2.980468-4.109375 4.78125-7.144531 4.78125zm289.558593-21.390626c-2.054687 0-4.109375-.816406-5.628906-2.4375-.015625-.011718-.066406-.066406-.070313-.074218-2.925781-3.109375-2.773437-8 .335938-10.921875s8-2.769531 10.921875.339843l.070313.074219c2.925781 3.109375 2.773437 8-.335938 10.921875-1.492188 1.402344-3.394531 2.097656-5.292969 2.097656zm-26.796875-14.171874c-2.058594 0-4.113281-.816407-5.632812-2.433594-.011719-.015625-.066406-.070313-.070313-.078125-2.921875-3.105469-2.769531-7.996094.339844-10.921875 3.109375-2.921875 7.996094-2.769532 10.921875.339844l.070312.074218c2.921876 3.109375 2.769532 8-.339843 10.921875-1.492188 1.402344-3.390625 2.097657-5.289063 2.097657zm-242.378906 12.765624c-2.5 0-4.949219-1.207031-6.4375-3.441406-2.367188-3.550781-1.40625-8.347656 2.144531-10.714844 3.539063-2.363281 8.363281-1.441406 10.738281 2.085938 2.371094 3.53125 1.488282 8.285156-2.023437 10.675781-.023437.015625-.121094.078125-.144531.097657-1.316406.875-2.808594 1.296874-4.277344 1.296874zm242.433594-12.835937c-.378906 0-.761719-.027344-1.144532-.085937l1.140626-7.644532-1.183594 7.636719 1.082031-7.648437 1.140625-7.644532c4.21875.632813 7.179688 4.570313 6.550781 8.792969-.574219 3.832031-3.828125 6.59375-7.585937 6.59375zm-30.921875-1.496094c-.039063 0-.078125 0-.117188 0l-.101562-.003906c-4.265625-.0625-7.675781-3.570313-7.613281-7.835937.0625-4.230469 3.507812-7.617188 7.722656-7.617188.039062 0 .078125.003906.117187.003906h.105469c4.265625.0625 7.671875 3.570313 7.609375 7.839844-.0625 4.226562-3.507813 7.613281-7.722656 7.613281zm-184.171875-.148437c-2.9375 0-5.742188-1.695313-7.03125-4.558594-1.757813-3.886719 0-8.476562 3.890625-10.234375l.230469-.101563c3.921874-1.675781 8.464843.136719 10.144531 4.058594 1.679687 3.925782-.136719 8.464844-4.058594 10.144532l-3.042969-7.101563 3.027344 7.109375c-1.027344.464844-2.101562.683594-3.160156.683594zm153.640625-.484375c-.074219 0-.152344-.003907-.230469-.003907l-.210938-.007812c-4.261718-.1875-7.570312-3.792969-7.382812-8.054688.183594-4.265624 3.789062-7.5625 8.054688-7.386718 4.265624.128906 7.617187 3.6875 7.492187 7.953125-.121094 4.1875-3.558594 7.5-7.722656 7.5zm-30.957031-1.476563c-.15625 0-.308594-.003906-.464844-.011718-.035156-.003907-.175782-.011719-.214844-.015626-4.253906-.3125-7.449219-4.015624-7.136719-8.273437.3125-4.253906 4.035157-7.441406 8.269531-7.136719 4.261719.25 7.507813 3.90625 7.257813 8.167969-.242187 4.101563-3.652344 7.269531-7.710937 7.269531zm-30.902344-2.40625c-.230469 0-.457032-.011718-.6875-.03125l-.214844-.023437c-4.246094-.433594-7.332031-4.230469-6.894531-8.476563.4375-4.242187 4.226562-7.328125 8.476562-6.894531 4.25.375 7.386719 4.125 7.011719 8.375-.355469 4.019531-3.730469 7.050781-7.691406 7.050781zm-30.859375-2.925781c-.226563 0-.457031-.007813-.6875-.027344l.679687-7.699219-.703125 7.695313c-4.234375-.359375-7.410156-4.074219-7.074219-8.3125.335938-4.238281 4.003907-7.40625 8.242188-7.097656.035156.003906.175781.015625.214844.019531 4.25.375 7.390625 4.125 7.015625 8.375-.351563 4.019531-3.726563 7.046875-7.6875 7.046875zm-31.066407-.644531c-3.964843 0-7.339843-3.035156-7.691406-7.058594-.367187-4.25 2.777344-7.996094 7.03125-8.367188 4.253906-.375 8.046875 2.765626 8.421875 7.015626s-2.71875 7.996093-6.972656 8.371093l-.113281.007813c-.226563.023437-.453125.03125-.675782.03125zm0 0" fill="#fff"/></svg>