<?xml version="1.0"?>
<svg xmlns="http://www.w3.org/2000/svg" xmlns:xlink="http://www.w3.org/1999/xlink" version="1.1" id="Layer_1" x="0px" y="0px" viewBox="0 0 512.001 512.001" style="enable-background:new 0 0 512.001 512.001;" xml:space="preserve" width="512px" height="512px"><g><g>
	<g>
		<path d="M505.922,476.567L285.355,256L505.92,35.435c8.106-8.105,8.106-21.248,0-29.354c-8.105-8.106-21.248-8.106-29.354,0    L256.001,226.646L35.434,6.081c-8.105-8.106-21.248-8.106-29.354,0c-8.106,8.105-8.106,21.248,0,29.354L226.646,256L6.08,476.567    c-8.106,8.106-8.106,21.248,0,29.354c8.105,8.105,21.248,8.106,29.354,0l220.567-220.567l220.567,220.567    c8.105,8.105,21.248,8.106,29.354,0S514.028,484.673,505.922,476.567z" data-original="#000000" class="active-path" data-old_color="#000000" fill="#FF1F28"/>
	</g>
</g></g> </svg>
