<?xml version="1.0"?>
<svg xmlns="http://www.w3.org/2000/svg" xmlns:xlink="http://www.w3.org/1999/xlink" version="1.1" width="512" height="512" x="0" y="0" viewBox="0 0 429.453 429.453" style="enable-background:new 0 0 512 512" xml:space="preserve" class=""><g transform="matrix(0.5,0,0,0.5,107.36325073242193,107.36325073242196)">
<g xmlns="http://www.w3.org/2000/svg">
	<path style="" d="M214.727,241.894c-129.045,0-200.098,61.127-200.098,171.886c0,8.882,6.792,15.673,15.673,15.673   h368.849c8.882,0,15.673-6.792,15.673-15.673C414.824,303.02,343.771,241.894,214.727,241.894z" fill="#8e8e8e" data-original="#4dcfe0" class=""/>
	<path style="" d="M214.727,218.906c57.469,0,103.967-50.678,103.967-112.849C318.694,45.453,273.763,0,214.727,0   S110.759,45.453,110.759,106.057C110.759,168.229,157.257,218.906,214.727,218.906z" fill="#8e8e8e" data-original="#4dcfe0" class=""/>
</g>
<g xmlns="http://www.w3.org/2000/svg">
</g>
<g xmlns="http://www.w3.org/2000/svg">
</g>
<g xmlns="http://www.w3.org/2000/svg">
</g>
<g xmlns="http://www.w3.org/2000/svg">
</g>
<g xmlns="http://www.w3.org/2000/svg">
</g>
<g xmlns="http://www.w3.org/2000/svg">
</g>
<g xmlns="http://www.w3.org/2000/svg">
</g>
<g xmlns="http://www.w3.org/2000/svg">
</g>
<g xmlns="http://www.w3.org/2000/svg">
</g>
<g xmlns="http://www.w3.org/2000/svg">
</g>
<g xmlns="http://www.w3.org/2000/svg">
</g>
<g xmlns="http://www.w3.org/2000/svg">
</g>
<g xmlns="http://www.w3.org/2000/svg">
</g>
<g xmlns="http://www.w3.org/2000/svg">
</g>
<g xmlns="http://www.w3.org/2000/svg">
</g>
</g></svg>
